<svg width="48" height="48" viewBox="0 0 48 48" fill="none" xmlns="http://www.w3.org/2000/svg">
    <path d="M35.249 41.25h-25.5l-1.5-22.785a1.14 1.14 0 0 1 1.155-1.215h5.595a1.665 1.665 0 0 1 1.335.66l1.83 2.34h17.085v3" stroke="#99A6B7" stroke-width="1.5" stroke-linecap="round" stroke-linejoin="round"/>
    <path d="m39.45 31.05 1.26-4.8H13.875l-4.125 15h25.365a2.13 2.13 0 0 0 2.055-1.59l1.14-4.32" stroke="#99A6B7" stroke-width="1.5" stroke-linecap="round" stroke-linejoin="round"/>
    <path d="M24.75 36.75a2.13 2.13 0 0 1 3 0v0" stroke="#99A6B7" stroke-width="1.5" stroke-linecap="round" stroke-linejoin="round"/>
    <path d="M27.75 36.75a2.13 2.13 0 0 0-3 0v0M20.25 32.25h1.5M30.75 32.25h1.5M30.93 5.415c-3.555.585-6.18 2.64-6.18 5.085.024.95.398 1.859 1.05 2.55l-1.05 4.2 4.29-2.145c1.275.432 2.613.65 3.96.645 4.5 0 8.25-2.355 8.25-5.25 0-2.4-2.535-4.425-6-5.055M31.875 9.375l2.25 2.25M34.125 9.375l-2.25 2.25" stroke="#99A6B7" stroke-width="1.5" stroke-linecap="round" stroke-linejoin="round"/>
</svg>
